<?xml version="1.0" encoding="UTF-8" standalone="no"?>
<!-- Generator: Adobe Illustrator 19.0.0, SVG Export Plug-In . SVG Version: 6.00 Build 0)  -->

<svg
   xmlns:dc="http://purl.org/dc/elements/1.1/"
   xmlns:cc="http://creativecommons.org/ns#"
   xmlns:rdf="http://www.w3.org/1999/02/22-rdf-syntax-ns#"
   xmlns:svg="http://www.w3.org/2000/svg"
   xmlns="http://www.w3.org/2000/svg"
   xmlns:sodipodi="http://sodipodi.sourceforge.net/DTD/sodipodi-0.dtd"
   xmlns:inkscape="http://www.inkscape.org/namespaces/inkscape"
   version="1.1"
   id="Layer_1"
   x="0px"
   y="0px"
   viewBox="0 0 511.99999 511.99999"
   xml:space="preserve"
   inkscape:version="0.91 r13725"
   sodipodi:docname="hodler1.svg"
   width="512"
   height="512"><metadata
     id="metadata4921"><rdf:RDF><cc:Work
         rdf:about=""><dc:format>image/svg+xml</dc:format><dc:type
           rdf:resource="http://purl.org/dc/dcmitype/StillImage" /><dc:title></dc:title></cc:Work></rdf:RDF></metadata><defs
     id="defs4919" /><sodipodi:namedview
     pagecolor="#ffffff"
     bordercolor="#666666"
     borderopacity="1"
     objecttolerance="10"
     gridtolerance="10"
     guidetolerance="10"
     inkscape:pageopacity="0"
     inkscape:pageshadow="2"
     inkscape:window-width="1322"
     inkscape:window-height="917"
     id="namedview4917"
     showgrid="false"
     fit-margin-top="0"
     fit-margin-left="0"
     fit-margin-right="0"
     fit-margin-bottom="0"
     inkscape:zoom="0.46093569"
     inkscape:cx="-114.502"
     inkscape:cy="258.53983"
     inkscape:window-x="0"
     inkscape:window-y="0"
     inkscape:window-maximized="0"
     inkscape:current-layer="Layer_1" /><g
     id="g5463"
     transform="matrix(0.89843527,0,0,0.89843527,151.78886,42.001151)"><path
       inkscape:connector-curvature="0"
       id="path4871"
       d="m 169.771,277.55699 0,86.461 0,118.568 c 0,12.167 -10.079,21.98 -22.344,21.544 -11.682,-0.415 -20.772,-10.372 -20.772,-22.06 l 0,-96.494 c 0,-11.906 -9.651,-21.558 -21.558,-21.558 l 0,0 c -11.906,0 -21.558,9.651 -21.558,21.558 l 0,97.011 c 0,12.167 -10.079,21.98 -22.344,21.544 -11.682,-0.415 -20.772,-10.372 -20.772,-22.06 l 0,-118.053 0,-86.461 129.348,0 z"
       style="fill:#5b7a7f" /><path
       inkscape:connector-curvature="0"
       id="path4873"
       d="m 202.108,191.55499 0,107.789 -194.021,0 0,-107.789 c 0,-35.718 28.955,-64.674 64.674,-64.674 l 64.674,0 c 35.717,0 64.673,28.956 64.673,64.674 z"
       style="fill:#90b5bf" /><path
       inkscape:connector-curvature="0"
       id="path4875"
       d="m 105.097,299.34399 -97.01,0 0,-107.789 c 0,-35.718 28.955,-64.674 64.674,-64.674 l 32.337,0 0,172.463 z"
       style="fill:#769ca5" /><path
       inkscape:connector-curvature="0"
       id="path4877"
       d="m 148.213,51.428986 c 0,23.812 -19.304,43.116 -43.116,43.116 -23.812,0 -43.116,-19.304 -43.116,-43.116 0,-23.812 19.304,-43.1160002 43.116,-43.1160002 23.812,0 43.116,19.3040002 43.116,43.1160002 z M 40.424,213.11299 l -32.337,0 0,118.568 c 0,11.905 9.651,21.558 21.558,21.558 11.907,0 21.558,-9.653 21.558,-21.558 l 0,-107.789 c 0,-5.953 -4.826,-10.779 -10.779,-10.779 z m 215.579,64.674 -53.895,0 0,-64.674 -32.337,0 c -5.953,0 -10.779,4.826 -10.779,10.779 l 0,75.453 c 0,11.905 9.651,21.558 21.558,21.558 l 75.453,0 c 11.906,0 21.558,-9.653 21.558,-21.558 l 0,0 c 0,-11.907 -9.652,-21.558 -21.558,-21.558 z"
       style="fill:#f4c064" /><path
       inkscape:connector-curvature="0"
       id="path4879"
       d="m 105.097,8.3129858 0,86.2320002 c -23.812,0 -43.116,-19.304 -43.116,-43.116 10e-4,-23.813 19.305,-43.1160002 43.116,-43.1160002 z"
       style="fill:#f4ab53" /><path
       inkscape:connector-curvature="0"
       id="path4881"
       d="m 331.455,191.55499 c 11.906,0 21.558,9.651 21.558,21.558 0,11.905 -9.651,21.558 -21.558,21.558 l -64.674,0 c -11.906,0 -21.558,-9.653 -21.558,-21.558 0,-11.906 9.651,-21.558 21.558,-21.558 -11.906,0 -21.558,-9.653 -21.558,-21.558 0,-11.906 9.651,-21.558 21.558,-21.558 -11.906,0 -21.558,-9.653 -21.558,-21.558 0,-11.906 9.651,-21.558 21.558,-21.558 l 64.674,0 c 11.906,0 21.558,9.651 21.558,21.558 0,11.905 -9.651,21.558 -21.558,21.558 11.906,0 21.558,9.651 21.558,21.558 0,11.905 -9.651,21.558 -21.558,21.558 z M 246.043,44.389986 c 2.067,11.725 13.248,19.554 24.974,17.487 l 63.691,-11.231 c 11.725,-2.067 19.554,-13.249 17.487,-24.974 -2.067,-11.725 -13.248,-19.5540002 -24.974,-17.4870002 L 263.53,19.415986 c -11.726,2.067 -19.554,13.249 -17.487,24.974 l 0,0 z"
       style="fill:#ffa233" /><path
       inkscape:connector-curvature="0"
       id="path4883"
       d="m 353.013,213.11299 0,0 -107.789,0 0,0 c 0,-11.906 9.651,-21.558 21.558,-21.558 l 64.674,0 c 11.906,0 21.557,9.651 21.557,21.558 z m -21.558,-64.674 -64.674,0 c -11.906,0 -21.558,9.651 -21.558,21.558 l 0,0 107.789,0 0,0 c 10e-4,-11.906 -9.65,-21.558 -21.557,-21.558 z m 0,-43.116 -64.674,0 c -11.906,0 -21.558,9.651 -21.558,21.558 l 0,0 107.789,0 0,0 c 10e-4,-11.906 -9.65,-21.558 -21.557,-21.558 z m -85.412,-60.933004 106.152,-18.718 0,0 C 350.128,13.946986 338.947,6.1179858 327.221,8.1849858 L 263.53,19.415986 c -11.726,2.067 -19.554,13.249 -17.487,24.974 l 0,0 z"
       style="fill:#ffc248" /><path
       inkscape:connector-curvature="0"
       id="path4885"
       d="m 238.082,46.027986 c -2.839,-16.096 7.947,-31.5 24.044,-34.338 l 35.59,-6.2760002 c 4.393,-0.781 8.59,2.16 9.365,6.5570002 0.775,4.397 -2.16,8.591 -6.557,9.365 l -35.59,6.276 c -3.544,0.625 -6.633,2.592 -8.696,5.541 -2.064,2.947 -2.856,6.523 -2.232,10.068 0.625,3.544 2.592,6.633 5.541,8.696 2.948,2.064 6.523,2.854 10.068,2.232 4.393,-0.777 8.59,2.16 9.365,6.557 0.776,4.398 -2.16,8.591 -6.557,9.365 -1.739,0.307 -3.481,0.458 -5.211,0.458 -6.028,10e-4 -11.899,-1.839 -16.939,-5.367 -6.488,-4.541 -10.817,-11.337 -12.191,-19.134 z m 90.543,-29.647 c 3.543,-0.622 7.118,0.168 10.068,2.231 2.948,2.064 4.916,5.152 5.541,8.698 0.624,3.544 -0.168,7.119 -2.232,10.068 -2.063,2.948 -5.152,4.915 -8.696,5.541 l -35.59,6.276 c -4.397,0.775 -7.333,4.968 -6.557,9.365 0.692,3.922 4.102,6.681 7.952,6.681 0.467,0 0.939,-0.04 1.414,-0.124 l 35.59,-6.276 c 16.096,-2.838 26.882,-18.242 24.044,-34.338 -1.374,-7.796 -5.703,-14.5930002 -12.19,-19.1340002 -6.486,-4.54199999 -14.352,-6.28999999 -22.15,-4.90999999 -4.397,0.77599999 -7.333,4.96799999 -6.557,9.36499999 0.775,4.3960002 4.97,7.3370002 9.363,6.5570002 z m 32.472,153.390004 c 0,-8.485 -3.583,-16.149 -9.317,-21.558 5.733,-5.409 9.317,-13.073 9.317,-21.558 0,-16.344 -13.298,-29.642004 -29.642,-29.642004 -4.466,0 -8.084,3.618004 -8.084,8.084004 0,4.466 3.618,8.084 8.084,8.084 7.43,0 13.474,6.044 13.474,13.474 0,7.43 -6.044,13.474 -13.474,13.474 -4.466,0 -8.084,3.618 -8.084,8.084 0,4.466 3.618,8.084 8.084,8.084 7.43,0 13.474,6.044 13.474,13.474 0,7.43 -6.044,13.474 -13.474,13.474 -4.466,0 -8.084,3.618 -8.084,8.084 0,4.466 3.618,8.084 8.084,8.084 7.43,0 13.474,6.044 13.474,13.474 0,7.43 -6.044,13.474 -13.474,13.474 l -64.674,0 c -7.43,0 -13.474,-6.044 -13.474,-13.474 0,-7.43 6.044,-13.474 13.474,-13.474 l 32.337,0 c 4.466,0 8.084,-3.618 8.084,-8.084 0,-4.466 -3.618,-8.084 -8.084,-8.084 l -32.337,0 c -7.43,0 -13.474,-6.044 -13.474,-13.474 0,-7.43 6.044,-13.474 13.474,-13.474 l 32.337,0 c 4.466,0 8.084,-3.618 8.084,-8.084 0,-4.466 -3.618,-8.084 -8.084,-8.084 l -32.337,0 c -7.43,0 -13.474,-6.044 -13.474,-13.474 0,-7.43 6.044,-13.474 13.474,-13.474 l 32.337,0 c 4.466,0 8.084,-3.618 8.084,-8.084 0,-4.466 -3.618,-8.084004 -8.084,-8.084004 l -32.337,0 c -16.344,0 -29.642,13.298004 -29.642,29.642004 0,8.485 3.583,16.149 9.318,21.558 -5.734,5.409 -9.318,13.073 -9.318,21.558 0,8.485 3.583,16.149 9.318,21.558 -5.734,5.409 -9.318,13.073 -9.318,21.558 0,16.344 13.298,29.642 29.642,29.642 l 64.674,0 c 16.344,0 29.642,-13.298 29.642,-29.642 0,-8.485 -3.583,-16.149 -9.317,-21.558 5.734,-5.409 9.317,-13.073 9.317,-21.558 z M 53.897,51.203986 c 0,-28.231 22.969,-51.19900019 51.2,-51.19900019 28.231,0 51.2,22.96800019 51.2,51.19900019 0,28.231 -22.969,51.199004 -51.2,51.199004 -28.231,0 -51.2,-22.967004 -51.2,-51.199004 z m 16.169,0 c 0,19.317 15.715,35.032 35.032,35.032 19.317,0 35.032,-15.715 35.032,-35.032 0,-19.317 -15.715,-35.032 -35.032,-35.032 -19.317,0 -35.032,15.715 -35.032,35.032 z M 285.645,299.11699 c 0,16.344 -13.298,29.642 -29.642,29.642 l -75.453,0 c -0.908,0 -1.808,-0.041 -2.695,-0.121 l 0,153.719 c 0,8.117 -3.216,15.692 -9.059,21.33 -5.579,5.383 -12.846,8.312 -20.567,8.313 -0.362,0 -0.724,-0.008 -1.09,-0.02 -16.02,-0.57 -28.569,-13.81 -28.569,-30.14 l 0,-96.492 c 0,-7.429 -6.044,-13.474 -13.474,-13.474 -7.43,0 -13.474,6.044 -13.474,13.474 l 0,97.009 c 0,8.117 -3.216,15.692 -9.059,21.33 -5.841,5.635 -13.509,8.569 -21.657,8.292 -16.02,-0.57 -28.569,-13.81 -28.569,-30.14 l 0,-120.865 c -0.887,0.08 -1.787,0.121 -2.695,0.121 -16.344,0 -29.642,-13.298 -29.642,-29.642 l 0,-140.124 c 0,-40.118 32.639,-72.757 72.758,-72.757 l 64.674,0 c 40.119,0 72.758,32.639 72.758,72.757 l 0,78.146 45.811,0 c 16.346,0 29.644,13.298 29.644,29.642 z m -123.958,22.849 c -4.572,-3.782 -7.996,-8.908 -9.659,-14.765 l -92.741,0 0,24.253 c 0,9.185 -4.199,17.407 -10.779,22.849 l 0,127.536 c 0,7.455 5.82,13.727 12.975,13.981 3.706,0.119 7.2,-1.206 9.854,-3.768 2.656,-2.563 4.119,-6.007 4.119,-9.697 l 0,-97.009 c 0,-16.344 13.298,-29.642 29.642,-29.642 16.344,0 29.642,13.298 29.642,29.642 l 0,96.492 c 0,7.455 5.82,13.727 12.975,13.981 3.709,0.119 7.2,-1.206 9.854,-3.768 2.656,-2.563 4.119,-6.007 4.119,-9.697 l 0,-160.388 z m 107.789,-22.849 c 0,-7.429 -6.044,-13.474 -13.474,-13.474 l -53.895,0 c -4.466,0 -8.084,-3.618 -8.084,-8.084 l 0,-86.23 c 0,-31.203 -25.387,-56.588 -56.589,-56.588 l -64.674,0 c -31.203,0 -56.589,25.385 -56.589,56.588 l 0,140.124 c 0,7.429 6.044,13.474 13.474,13.474 2.422,0 4.695,-0.642 6.662,-1.766 0.047,-0.027 0.094,-0.055 0.141,-0.082 3.987,-2.342 6.67,-6.676 6.67,-11.626 l 0,-118.567 c 0,-4.466 3.618,-8.084 8.084,-8.084 4.466,0 8.084,3.618 8.084,8.084 l 0,78.146 91.621,0 0,-78.146 c 0,-4.466 3.618,-8.084 8.084,-8.084 4.466,0 8.084,3.618 8.084,8.084 l 0,86.23 c 0,7.429 6.044,13.474 13.474,13.474 l 75.453,0 c 7.431,0 13.474,-6.044 13.474,-13.473 z" /></g><g
     id="g4887"
     transform="translate(-75.451,-0.00201419)" /><g
     id="g4889"
     transform="translate(-75.451,-0.00201419)" /><g
     id="g4891"
     transform="translate(-75.451,-0.00201419)" /><g
     id="g4893"
     transform="translate(-75.451,-0.00201419)" /><g
     id="g4895"
     transform="translate(-75.451,-0.00201419)" /><g
     id="g4897"
     transform="translate(-75.451,-0.00201419)" /><g
     id="g4899"
     transform="translate(-75.451,-0.00201419)" /><g
     id="g4901"
     transform="translate(-75.451,-0.00201419)" /><g
     id="g4903"
     transform="translate(-75.451,-0.00201419)" /><g
     id="g4905"
     transform="translate(-75.451,-0.00201419)" /><g
     id="g4907"
     transform="translate(-75.451,-0.00201419)" /><g
     id="g4909"
     transform="translate(-75.451,-0.00201419)" /><g
     id="g4911"
     transform="translate(-75.451,-0.00201419)" /><g
     id="g4913"
     transform="translate(-75.451,-0.00201419)" /><g
     id="g4915"
     transform="translate(-75.451,-0.00201419)" /></svg>